<?xml version="1.0" encoding="UTF-8"?>
<svg xmlns="http://www.w3.org/2000/svg" xmlns:xlink="http://www.w3.org/1999/xlink" width="100px" height="100px" viewBox="0 0 100 100" version="1.1">
<defs>
<clipPath id="clip1">
  <path d="M 14.398438 14.398438 L 85.746094 14.398438 L 85.746094 85.746094 L 14.398438 85.746094 Z M 14.398438 14.398438 "/>
</clipPath>
<clipPath id="clip2">
  <path d="M 14.34375 14.34375 L 85.746094 14.34375 L 85.746094 85.746094 L 14.34375 85.746094 Z M 14.34375 14.34375 "/>
</clipPath>
</defs>
<g id="surface1">
<g clip-path="url(#clip1)" clip-rule="nonzero">
<path style=" stroke:none;fill-rule:nonzero;fill:rgb(100%,64.705882%,0%);fill-opacity:1;" d="M 82.875 36.179688 C 81.082031 31.9375 78.511719 28.125 75.238281 24.855469 C 71.96875 21.582031 68.15625 19.015625 63.914062 17.21875 C 59.523438 15.359375 54.855469 14.417969 50.046875 14.417969 C 45.238281 14.417969 40.570312 15.359375 36.179688 17.21875 C 31.9375 19.015625 28.125 21.582031 24.855469 24.855469 C 21.582031 28.125 19.015625 31.9375 17.21875 36.179688 C 15.359375 40.570312 14.417969 45.238281 14.417969 50.046875 C 14.417969 54.855469 15.359375 59.519531 17.21875 63.914062 C 19.015625 68.15625 21.582031 71.96875 24.855469 75.238281 C 28.125 78.511719 31.9375 81.082031 36.179688 82.875 C 40.570312 84.730469 45.238281 85.675781 50.046875 85.675781 C 54.855469 85.675781 59.523438 84.734375 63.914062 82.875 C 68.160156 81.082031 71.96875 78.511719 75.242188 75.238281 C 78.511719 71.96875 81.082031 68.15625 82.875 63.914062 C 84.734375 59.523438 85.675781 54.855469 85.675781 50.046875 C 85.675781 45.238281 84.730469 40.570312 82.875 36.179688 Z M 50.046875 84.828125 C 30.867188 84.828125 15.265625 69.226562 15.265625 50.046875 C 15.265625 30.867188 30.867188 15.265625 50.046875 15.265625 C 69.226562 15.265625 84.828125 30.867188 84.828125 50.046875 C 84.828125 69.226562 69.226562 84.828125 50.046875 84.828125 Z M 50.046875 84.828125 "/>
</g>
<g clip-path="url(#clip2)" clip-rule="nonzero">
<path style="fill:none;stroke-width:1;stroke-linecap:butt;stroke-linejoin:miter;stroke:rgb(0%,0%,0%);stroke-opacity:1;stroke-miterlimit:10;" d="M 459.364081 146.36149 C 447.345661 117.925752 430.116641 92.370245 408.174516 70.454303 C 386.258574 48.512178 360.703067 31.309342 332.267329 19.264738 C 302.836601 6.801191 271.546816 0.490866 239.314409 0.490866 C 207.082002 0.490866 175.792217 6.801191 146.361489 19.264738 C 117.925751 31.309342 92.370244 48.512178 70.454303 70.454303 C 48.512177 92.370245 31.309341 117.925752 19.264737 146.36149 C 6.801191 175.792218 0.490866 207.082003 0.490866 239.31441 C 0.490866 271.546817 6.801191 302.810418 19.264737 332.267329 C 31.309341 360.703068 48.512177 386.258575 70.454303 408.174516 C 92.370244 430.116642 117.925751 447.345662 146.361489 459.364082 C 175.792217 471.801444 207.082002 478.137953 239.314409 478.137953 C 271.546816 478.137953 302.836601 471.827628 332.267329 459.364082 C 360.729251 447.345662 386.258574 430.116642 408.200699 408.174516 C 430.116641 386.258575 447.345661 360.703068 459.364081 332.267329 C 471.827628 302.836602 478.137952 271.546817 478.137952 239.31441 C 478.137952 207.082003 471.801444 175.792218 459.364081 146.36149 Z M 239.314409 472.456043 C 110.751357 472.456043 6.172776 367.877462 6.172776 239.31441 C 6.172776 110.751358 110.751357 6.172777 239.314409 6.172777 C 367.877461 6.172777 472.456042 110.751358 472.456042 239.31441 C 472.456042 367.877462 367.877461 472.456043 239.314409 472.456043 Z M 239.314409 472.456043 " transform="matrix(0.149185,0,0,0.149185,14.344739,14.344739)"/>
</g>
<path style="fill-rule:nonzero;fill:rgb(100%,64.705882%,0%);fill-opacity:1;stroke-width:1;stroke-linecap:butt;stroke-linejoin:miter;stroke:rgb(0%,0%,0%);stroke-opacity:1;stroke-miterlimit:10;" d="M 320.824955 190.586133 L 321.112978 190.088638 L 320.536932 189.957719 C 319.437207 189.69588 318.337483 189.591144 317.237758 189.591144 C 311.582031 189.591144 306.554718 192.890318 305.324074 197.865263 L 305.219338 198.31039 L 305.664465 198.388941 C 311.765318 199.38393 317.447229 196.451331 320.824955 190.586133 Z M 307.916282 196.739354 C 310.848881 192.942686 315.692907 191.921513 317.551965 191.738225 C 314.017136 195.796733 309.565869 196.660803 307.916282 196.739354 Z M 307.916282 196.739354 " transform="matrix(0.149185,0,0,0.149185,14.344739,14.344739)"/>
<path style="fill-rule:nonzero;fill:rgb(100%,64.705882%,0%);fill-opacity:1;stroke-width:1;stroke-linecap:butt;stroke-linejoin:miter;stroke:rgb(0%,0%,0%);stroke-opacity:1;stroke-miterlimit:10;" d="M 328.627764 330.513007 C 324.176497 324.071762 317.892356 319.358656 309.801524 316.399873 C 306.004856 314.90739 302.417659 313.833849 299.039933 313.179251 C 295.636023 312.498469 290.818182 312.000975 284.534041 311.686768 C 290.975285 310.848882 295.845494 310.063364 299.170852 309.330215 C 302.470026 308.597065 305.847752 307.392605 309.30403 305.743018 C 315.902378 302.941338 321.165346 298.463887 325.040566 292.363034 C 328.915787 286.26218 330.853397 279.480545 330.853397 272.044311 C 330.853397 264.948469 329.125258 258.507224 325.66898 252.720577 C 322.212703 246.933931 317.31631 242.404113 311.058353 239.078755 C 308.256673 237.586271 305.402626 236.355627 302.522394 235.360638 C 299.615979 234.365649 296.578644 233.553947 293.358022 232.899349 C 290.1374 232.218567 286.550203 231.825809 282.59643 231.642521 C 278.642658 231.485418 274.11284 231.406866 268.980792 231.406866 C 266.336216 231.406866 263.848743 231.406866 261.544558 231.43305 C 267.016997 226.09153 281.549074 211.821293 286.707306 206.636877 C 288.042686 205.301497 289.927928 204.12322 292.284481 203.154415 C 296.107334 201.58338 299.799267 202.290346 302.941337 205.170577 C 304.617108 206.715428 305.533545 208.914878 305.42881 211.219063 C 305.350258 213.366144 304.381453 215.329938 302.75805 216.586767 C 301.396486 217.660307 299.668347 218.07925 298.14968 217.738859 C 296.997587 217.47702 296.133518 216.822422 295.636023 215.879801 C 295.138529 214.858628 295.138529 213.051937 295.636023 212.292603 L 295.688391 212.240236 L 295.688391 212.187868 C 296.133518 210.983407 297.28561 210.616833 298.49007 210.407361 C 298.725726 210.381177 299.380324 210.80012 299.799267 211.035775 C 300.270577 211.323798 300.715704 211.611822 301.082279 211.690373 L 301.972532 211.899845 L 301.553589 211.061959 C 300.741888 209.543292 299.720715 208.600671 298.542438 208.286464 C 297.390346 207.972256 296.107334 208.26028 294.74577 209.098165 C 293.541309 209.831315 292.703424 211.061959 292.363033 212.502075 C 291.996458 214.151662 292.284481 215.879801 293.174735 217.267548 C 294.300643 219.048055 296.08115 220.200148 298.202047 220.488171 C 300.532416 220.828562 302.967521 220.069228 304.852763 218.393457 C 307.183132 216.351111 308.361409 213.33996 308.09957 210.145522 C 307.785362 206.689244 305.847752 203.52099 302.836601 201.661932 C 302.129636 201.242989 301.396486 200.85023 300.637152 200.457471 C 300.427681 200.326552 300.218209 200.221816 300.008738 200.11708 C 300.034922 200.064712 300.113474 199.986161 300.139658 199.907609 C 300.427681 199.567218 300.663336 199.279195 300.872807 198.938804 C 302.731866 196.189492 302.75805 193.256893 300.951359 190.481397 C 299.458876 188.203396 297.233242 187.02512 294.431563 187.02512 C 293.8817 187.02512 293.331838 187.077488 292.755792 187.182223 C 289.797009 187.601166 288.095054 189.748247 288.330709 192.785582 C 288.435445 193.990043 289.090043 195.142135 290.1374 195.980021 C 291.289492 196.922642 292.755792 197.315401 294.14354 197.079745 C 295.714575 196.84409 296.788116 196.294228 297.390346 195.403974 C 298.01876 194.513721 298.175863 193.283077 297.835472 191.685858 L 297.626001 190.638501 C 297.809289 190.76942 297.940208 190.90034 298.097312 191.03126 C 298.935197 191.895329 299.432692 193.099789 299.485059 194.330434 C 299.563611 197.210665 297.966392 199.148275 295.059977 199.619586 C 290.73963 200.300368 286.995329 202.31653 283.32958 205.929911 C 274.453231 214.67534 262.69665 226.379553 251.332829 237.664823 C 241.147284 247.798 230.621347 258.245385 222.582884 266.179113 L 222.347228 266.414768 L 222.949458 267.95962 L 222.949458 391.1026 L 201.897586 391.1026 L 201.897586 397.020166 C 204.856369 396.889247 207.448577 396.758327 209.700394 396.705959 C 211.926028 396.627407 214.151661 396.601223 216.377294 396.601223 C 218.602928 396.601223 220.95948 396.601223 223.446953 396.601223 C 225.934425 396.601223 228.893208 396.601223 232.349486 396.601223 C 245.389079 396.601223 255.469888 396.601223 262.670467 396.601223 C 269.818677 396.601223 275.395852 396.496488 279.349624 396.339384 C 283.32958 396.182281 286.262179 396.025177 288.147422 395.868074 C 290.058848 395.71097 292.232113 395.370579 294.719586 394.899269 C 307.575891 392.595083 317.551965 387.751058 324.647808 380.41956 C 331.74365 373.061878 335.27848 363.92369 335.27848 353.031179 C 335.304663 344.469037 333.07903 336.954251 328.627764 330.513007 Z M 275.291116 237.141144 C 278.825946 237.324432 281.837097 237.691007 284.324569 238.267053 C 286.812042 238.843099 288.854388 239.628617 290.503975 240.623606 C 292.153562 241.592411 293.8817 242.849239 295.714575 244.315539 C 299.013749 247.300506 301.579773 251.123358 303.386464 255.81028 C 305.219338 260.523386 306.109592 265.681618 306.109592 271.284977 C 306.109592 277.04544 305.140786 282.439328 303.150808 287.466641 C 301.16083 292.520137 298.359151 296.657197 294.74577 299.982555 C 288.278341 305.743018 278.380819 308.623249 265.000836 308.623249 L 246.672091 308.623249 L 246.672091 245.886574 C 246.698275 245.886574 246.698275 245.86039 246.724459 245.86039 C 248.845356 243.870412 250.94007 241.801882 252.956232 239.785721 C 253.925037 238.843099 254.893842 237.874294 255.888831 236.905489 L 262.042052 236.905489 C 267.305021 236.905489 271.730103 236.984041 275.291116 237.141144 Z M 297.049955 191.659674 C 296.500093 193.44018 295.531287 194.016227 295.21708 194.147146 C 294.222091 194.618457 293.619861 194.566089 292.67724 194.016227 L 292.624872 193.963859 L 292.520137 193.937675 C 292.232113 193.859123 291.551331 192.811766 291.47278 192.419007 L 291.498964 192.392823 L 291.498964 192.209536 C 291.551331 189.931535 294.248275 189.722064 294.771954 189.722064 C 295.740759 189.669696 296.657196 189.931535 297.41653 190.455213 Z M 299.066117 380.471928 C 295.295632 384.451884 290.922917 387.201196 285.974156 388.772231 C 281.051579 390.343266 274.269944 391.128784 265.707801 391.128784 L 246.672091 391.128784 L 246.672091 314.331344 L 266.205296 314.331344 C 281.208683 314.331344 292.205929 317.342495 299.197036 323.364796 C 306.188143 329.413282 309.722973 338.68239 309.722973 351.224488 C 309.722973 363.295276 306.161959 373.035694 299.066117 380.471928 Z M 299.066117 380.471928 " transform="matrix(0.149185,0,0,0.149185,14.344739,14.344739)"/>
<path style="fill-rule:nonzero;fill:rgb(100%,64.705882%,0%);fill-opacity:1;stroke-width:1;stroke-linecap:butt;stroke-linejoin:miter;stroke:rgb(0%,0%,0%);stroke-opacity:1;stroke-miterlimit:10;" d="M 126.147502 298.2806 L 125.859479 298.778095 L 126.435526 298.909014 C 127.53525 299.144669 128.661159 299.249405 129.7347 299.249405 C 135.390427 299.170853 140.365372 295.793128 141.543648 290.791999 L 141.648384 290.320688 L 141.203257 290.26832 C 135.07622 289.351883 129.446677 292.363034 126.147502 298.2806 Z M 129.420493 297.07614 C 132.87677 292.965264 137.328037 292.048827 138.977624 291.944091 C 136.071209 295.793128 131.253367 296.866668 129.420493 297.07614 Z M 129.420493 297.07614 " transform="matrix(0.149185,0,0,0.149185,14.344739,14.344739)"/>
<path style="fill-rule:nonzero;fill:rgb(100%,64.705882%,0%);fill-opacity:1;stroke-width:1;stroke-linecap:butt;stroke-linejoin:miter;stroke:rgb(0%,0%,0%);stroke-opacity:1;stroke-miterlimit:10;" d="M 288.435445 91.610912 C 285.790869 89.882773 283.015373 88.390289 280.108958 87.133461 C 277.202543 85.902817 273.955737 84.907828 270.368539 84.200862 C 266.781342 83.52008 262.591915 82.996402 257.826441 82.682195 C 253.060968 82.367987 247.53616 82.210884 241.278203 82.210884 L 211.480901 82.210884 C 208.33883 82.210884 205.589519 82.210884 203.154414 82.210884 C 200.719309 82.210884 198.388941 82.210884 196.110939 82.210884 C 193.832938 82.210884 191.528753 82.158516 189.1722 82.05378 C 186.815647 81.949045 184.249623 81.791941 181.42176 81.556286 L 181.42176 87.081093 L 200.928781 87.081093 L 200.928781 233.475396 L 181.42176 233.475396 L 181.42176 239.157306 C 188.622338 238.895467 194.932663 238.685996 200.352735 238.528892 C 201.216804 238.528892 202.054689 238.502708 202.840207 238.476524 C 202.264161 239.078755 201.714298 239.628617 201.269172 240.099928 C 200.274183 241.1211 199.541033 241.880434 199.462481 241.958986 C 197.367768 243.948964 195.299238 246.069862 193.30926 248.086023 C 191.24073 250.233105 189.093649 252.40637 186.920383 254.4749 C 186.449073 254.920027 166.287453 275.264933 160.029496 281.732362 C 158.694116 283.093926 156.835058 284.298386 154.478505 285.293375 C 150.681836 286.916778 146.989904 286.26218 143.795465 283.434317 C 142.09351 281.915649 141.150889 279.7162 141.229441 277.412015 C 141.281809 275.264933 142.22443 273.274955 143.821649 271.991943 C 145.183213 270.918403 146.885168 270.473276 148.430019 270.787483 C 149.555928 271.023138 150.446181 271.677736 150.943676 272.620357 C 151.467354 273.64153 151.493538 275.422037 150.996044 276.181371 L 150.96986 276.233739 L 150.943676 276.31229 C 150.550917 277.516751 149.37264 277.909509 148.194364 278.118981 C 147.958709 278.145165 147.277927 277.752406 146.858984 277.516751 C 146.387673 277.228728 145.942547 276.966888 145.575972 276.888337 L 144.685719 276.678865 L 145.130845 277.490567 C 145.968731 279.009234 146.989904 279.925671 148.16818 280.239878 C 149.346456 280.527902 150.603285 280.239878 151.964849 279.349625 C 153.143125 278.616475 153.954827 277.385831 154.295218 275.919531 C 154.635609 274.296128 154.321401 272.56799 153.404964 271.180242 C 152.252872 269.425919 150.446181 268.30001 148.351467 268.038171 C 145.994915 267.723964 143.55981 268.509482 141.700752 270.211437 C 139.42275 272.30615 138.270658 275.317301 138.611049 278.537924 C 138.95144 281.968017 140.941418 285.110088 143.952569 286.916778 C 144.685719 287.361905 145.418868 287.72848 146.178202 288.121239 C 146.387673 288.225974 146.623329 288.33071 146.8328 288.435446 C 146.780432 288.513997 146.728064 288.592549 146.675697 288.644917 C 146.413857 288.985308 146.178202 289.299515 145.968731 289.613722 C 144.16204 292.415402 144.16204 295.348001 146.021099 298.097313 C 147.513582 300.34913 149.765399 301.475038 152.567079 301.448854 C 153.116941 301.422671 153.692987 301.370303 154.24285 301.291751 C 157.201633 300.82044 158.85122 298.647175 158.589381 295.60984 C 158.484645 294.431564 157.803863 293.253287 156.730322 292.441586 C 155.552046 291.551332 154.11193 291.158574 152.724182 291.394229 C 151.153147 291.656068 150.10579 292.232114 149.50356 293.122368 C 148.90133 294.038805 148.77041 295.243265 149.110801 296.840484 L 149.346456 297.887841 C 149.189353 297.756922 149.032249 297.626002 148.875146 297.468898 C 148.03726 296.631013 147.513582 295.426553 147.43503 294.222092 C 147.330295 291.315677 148.90133 289.378067 151.807745 288.880572 C 156.128092 288.121239 159.820025 286.052709 163.433406 282.38696 C 172.20502 273.510611 183.778313 261.649295 194.985031 250.206921 C 204.908737 240.04756 215.199018 229.547807 223.080378 221.509344 C 223.185114 220.331067 223.185114 168.303616 223.185114 168.303616 L 236.067603 168.303616 C 246.672091 168.303616 255.653176 167.675202 262.984674 166.418374 C 270.342355 165.161546 276.966887 163.145384 282.910638 160.31752 C 289.770825 156.887427 295.033793 151.938666 298.725726 145.549789 C 302.391475 139.134728 304.198165 131.698495 304.198165 123.241088 C 304.171981 109.36361 298.935197 98.785306 288.435445 91.610912 Z M 149.896319 296.866668 C 150.419997 295.059978 151.388802 294.483931 151.676825 294.353012 C 152.671814 293.881701 153.300229 293.907885 154.216666 294.457748 L 154.295218 294.510115 L 154.399953 294.510115 C 154.687976 294.614851 155.368758 295.636024 155.473494 296.028783 L 155.421126 296.054967 L 155.421126 296.238254 C 155.394942 298.542439 152.724182 298.778095 152.200504 298.778095 C 151.231699 298.830462 150.315262 298.568623 149.529744 298.071129 Z M 268.090538 154.845081 C 264.503341 157.803864 260.235362 159.872394 255.312785 161.05067 C 250.390208 162.228947 243.739492 162.804993 235.308269 162.804993 L 223.132746 162.804993 L 223.132746 87.081093 L 245.12724 87.081093 C 268.561849 87.081093 280.239878 99.361352 280.239878 123.895686 C 280.266061 138.113555 276.207554 148.43002 268.090538 154.845081 Z M 268.090538 154.845081 " transform="matrix(0.149185,0,0,0.149185,14.344739,14.344739)"/>
</g>
</svg>
